<?xml version="1.0" standalone="no"?><!DOCTYPE svg PUBLIC "-//W3C//DTD SVG 1.1//EN" "http://www.w3.org/Graphics/SVG/1.1/DTD/svg11.dtd"><svg t="1592273632943" class="icon" viewBox="0 0 1567 1024" version="1.1" xmlns="http://www.w3.org/2000/svg" p-id="3059" xmlns:xlink="http://www.w3.org/1999/xlink" width="306.0546875" height="200"><defs><style type="text/css"></style></defs><path d="M783.059 1024C340.69 1024 0 519.951 0 519.951S294.912 0 783.059 0s783.059 519.951 783.059 519.951S1225.427 1024 783.058 1024z m518.626-710.957C1144.049 164.443 971.174 74.27 777.999 74.27c-193.235 0-366.11 90.172-523.746 238.773-55.958 53.067-106.797 111.375-147.456 169.743-5.12 10.662-15.3 21.263-20.36 31.864 10.18 10.602 15.24 21.203 25.42 31.805 45.779 58.368 101.677 111.435 157.636 164.502 162.695 148.54 335.57 233.472 508.506 233.472 172.875 0 345.75-90.232 508.446-233.472 61.019-53.067 111.857-111.435 157.636-164.502 10.18-10.602 20.36-21.203 25.42-31.805-5.06-10.601-15.24-21.202-20.36-31.864-45.719-58.368-91.498-116.676-147.456-169.743zM777.999 764.024c-147.516 0-269.493-122.036-269.493-281.238 0-153.841 116.917-281.178 269.493-281.178 147.456 0 269.493 127.337 269.493 281.178 0 153.901-116.977 281.238-269.493 281.238z m0-477.545c-106.797 0-193.235 90.233-193.235 201.608 0 111.435 86.438 201.667 193.235 201.667 106.737 0 193.175-95.533 193.175-201.667 0-111.375-86.438-201.608-193.175-201.608z" p-id="3060" fill="#1afa29"></path></svg>