<?xml version="1.0" standalone="no"?><!DOCTYPE svg PUBLIC "-//W3C//DTD SVG 1.1//EN" "http://www.w3.org/Graphics/SVG/1.1/DTD/svg11.dtd"><svg t="1592273590180" class="icon" viewBox="0 0 2048 1024" version="1.1" xmlns="http://www.w3.org/2000/svg" p-id="2862" xmlns:xlink="http://www.w3.org/1999/xlink" width="400" height="200"><defs><style type="text/css"></style></defs><path d="M1994.496 63.744c-32.085333-24.917333-74.837333-17.749333-99.754667 14.250667-3.498667 3.584-398.762667 470.016-868.778666 470.016C570.282667 548.010667 157.269333 77.994667 153.6 74.410667A72.192 72.192 0 0 0 53.930667 67.413333a72.277333 72.277333 0 0 0-7.082667 99.669334c7.082667 10.666667 92.501333 106.837333 227.84 213.589333L90.282667 566.613333a68.864 68.864 0 0 0 3.413333 99.669334c7.253333 14.250667 25.002667 21.333333 42.837333 21.333333a70.4 70.4 0 0 0 49.834667-21.333333l198.656-200.106667A1390.08 1390.08 0 0 0 709.12 633.514667l-77.653333 252.757333a71.168 71.168 0 0 0 49.834666 89.002667h21.333334c32.085333 0 60.586667-21.333333 67.669333-53.418667l77.653333-252.757333c57.002667 10.666667 117.504 17.749333 178.005334 17.749333 60.586667 0 121.173333-7.082667 178.090666-17.749333l77.653334 249.173333c7.082667 32.085333 39.082667 53.418667 67.584 53.418667 7.082667 0 14.250667 0 17.749333-3.584a71.082667 71.082667 0 0 0 49.92-89.002667l-77.653333-249.173333c121.088-42.752 231.424-103.253333 324.010666-167.424l195.157334 196.608c14.250667 14.165333 32 21.333333 49.749333 21.333333a70.314667 70.314667 0 0 0 49.92-21.333333 72.192 72.192 0 0 0 3.584-99.754667l-184.490667-185.770667c145.92-106.922667 231.509333-210.176 231.509334-210.176a76.629333 76.629333 0 0 0-14.250667-99.669333z" fill="#1afa29" p-id="2863"></path></svg>