<?xml version="1.0" standalone="no"?><!DOCTYPE svg PUBLIC "-//W3C//DTD SVG 1.1//EN" "http://www.w3.org/Graphics/SVG/1.1/DTD/svg11.dtd"><svg t="1592894622386" class="icon" viewBox="0 0 1024 1024" version="1.1" xmlns="http://www.w3.org/2000/svg" p-id="1443" xmlns:xlink="http://www.w3.org/1999/xlink" width="200" height="200"><defs><style type="text/css"></style></defs><path d="M921.6 849.2032V665.6a51.2 51.2 0 0 1 102.4 0v358.4h-358.4a51.2 51.2 0 0 1 0-102.4h183.6032l-219.8016-219.8016a51.2 51.2 0 0 1 72.3968-72.3968L921.6 849.2032zM174.7968 921.6H358.4a51.2 51.2 0 0 1 0 102.4H0v-358.4a51.2 51.2 0 0 1 102.4 0v183.6032l219.8016-219.8016a51.2 51.2 0 1 1 72.3968 72.3968L174.7968 921.6zM849.2032 102.4H665.6a51.2 51.2 0 0 1 0-102.4h358.4v358.4a51.2 51.2 0 0 1-102.4 0V174.7968l-219.8016 219.8016a51.2 51.2 0 0 1-72.3968-72.3968L849.2032 102.4zM102.4 174.7968V358.4a51.2 51.2 0 1 1-102.4 0V0h358.4a51.2 51.2 0 1 1 0 102.4H174.7968l219.8016 219.8016a51.2 51.2 0 0 1-72.3968 72.3968L102.4 174.7968z" p-id="1444" fill="#1afa29"></path></svg>